<svg width="25" height="25" viewBox="0 0 25 25" fill="none" xmlns="http://www.w3.org/2000/svg">
<path d="M2.69922 20.0322H4.69922M4.69922 20.0322H14.6992M4.69922 20.0322V6.23242C4.69922 5.11232 4.69922 4.55185 4.91721 4.12402C5.10895 3.7477 5.41469 3.44196 5.79102 3.25021C6.21884 3.03223 6.77931 3.03223 7.89941 3.03223H11.4994C12.6195 3.03223 13.1788 3.03223 13.6066 3.25021C13.9829 3.44196 14.2897 3.7477 14.4814 4.12402C14.6992 4.55143 14.6992 5.11122 14.6992 6.22914V12.0322M14.6992 20.0322H20.6992M14.6992 20.0322V12.0322M20.6992 20.0322H22.6992M20.6992 20.0322V12.0322C20.6992 11.1003 20.6991 10.6346 20.5469 10.2671C20.3439 9.77703 19.9549 9.38745 19.4648 9.18447C19.0973 9.03223 18.6308 9.03223 17.699 9.03223C16.7671 9.03223 16.3011 9.03223 15.9336 9.18447C15.4435 9.38745 15.0544 9.77703 14.8515 10.2671C14.6992 10.6346 14.6992 11.1003 14.6992 12.0322M7.69922 10.0322H11.6992M7.69922 7.03223H11.6992" stroke="#333399" stroke-width="2" stroke-linecap="round" stroke-linejoin="round"/>
</svg>
