<svg width="25" height="24" viewBox="0 0 25 24" fill="none" xmlns="http://www.w3.org/2000/svg">
<path fill-rule="evenodd" clip-rule="evenodd" d="M12.25 18C15.5637 18 18.25 15.3137 18.25 12C18.25 8.68629 15.5637 6 12.25 6C8.93629 6 6.25 8.68629 6.25 12C6.25 15.3137 8.93629 18 12.25 18Z" fill="#535763"/>
<path fill-rule="evenodd" clip-rule="evenodd" d="M12.2445 1.5C12.7968 1.5 13.2445 1.94772 13.2445 2.5V3.5C13.2445 4.05228 12.7968 4.5 12.2445 4.5C11.6922 4.5 11.2445 4.05228 11.2445 3.5V2.5C11.2445 1.94772 11.6922 1.5 12.2445 1.5Z" fill="#535763"/>
<path fill-rule="evenodd" clip-rule="evenodd" d="M12.2445 19.5C12.7968 19.5 13.2445 19.9477 13.2445 20.5V21.4968C13.2445 22.0491 12.7968 22.4968 12.2445 22.4968C11.6922 22.4968 11.2445 22.0491 11.2445 21.4968V20.5C11.2445 19.9477 11.6922 19.5 12.2445 19.5Z" fill="#535763"/>
<path fill-rule="evenodd" clip-rule="evenodd" d="M1.74609 11.9984C1.74609 11.4461 2.19381 10.9984 2.74609 10.9984H3.74609C4.29838 10.9984 4.74609 11.4461 4.74609 11.9984C4.74609 12.5507 4.29838 12.9984 3.74609 12.9984H2.74609C2.19381 12.9984 1.74609 12.5507 1.74609 11.9984Z" fill="#535763"/>
<path fill-rule="evenodd" clip-rule="evenodd" d="M19.7461 11.9984C19.7461 11.4461 20.1938 10.9984 20.7461 10.9984H21.7429C22.2952 10.9984 22.7429 11.4461 22.7429 11.9984C22.7429 12.5507 22.2952 12.9984 21.7429 12.9984H20.7461C20.1938 12.9984 19.7461 12.5507 19.7461 11.9984Z" fill="#535763"/>
<path fill-rule="evenodd" clip-rule="evenodd" d="M4.8211 19.4219C4.43057 19.0313 4.43057 18.3982 4.8211 18.0077L5.5282 17.3005C5.91873 16.91 6.55189 16.91 6.94242 17.3005C7.33294 17.6911 7.33294 18.3242 6.94242 18.7148L6.23531 19.4219C5.84479 19.8124 5.21162 19.8124 4.8211 19.4219Z" fill="#535763"/>
<path fill-rule="evenodd" clip-rule="evenodd" d="M17.549 6.69394C17.1585 6.30342 17.1585 5.67025 17.549 5.27973L18.2538 4.5749C18.6444 4.18438 19.2775 4.18438 19.6681 4.5749C20.0586 4.96543 20.0586 5.59859 19.6681 5.98911L18.9632 6.69394C18.5727 7.08447 17.9395 7.08447 17.549 6.69394Z" fill="#535763"/>
<path fill-rule="evenodd" clip-rule="evenodd" d="M4.8211 4.5749C5.21162 4.18438 5.84479 4.18438 6.23531 4.5749L6.94242 5.28201C7.33294 5.67253 7.33294 6.3057 6.94242 6.69622C6.55189 7.08675 5.91873 7.08675 5.5282 6.69622L4.8211 5.98911C4.43057 5.59859 4.43057 4.96543 4.8211 4.5749Z" fill="#535763"/>
<path fill-rule="evenodd" clip-rule="evenodd" d="M17.549 17.3028C17.9395 16.9123 18.5727 16.9123 18.9632 17.3028L19.6681 18.0077C20.0586 18.3982 20.0586 19.0313 19.6681 19.4219C19.2775 19.8124 18.6444 19.8124 18.2538 19.4219L17.549 18.717C17.1585 18.3265 17.1585 17.6933 17.549 17.3028Z" fill="#535763"/>
</svg>
