<svg width="416" height="184" viewBox="0 0 416 184" fill="none" xmlns="http://www.w3.org/2000/svg">
<g clip-path="url(#clip0_204_17379)" filter="url(#filter0_d_204_17379)">
<path d="M282.494 109.451V155.71C282.494 156.333 282.002 156.826 281.405 156.826H271.761C271.163 156.826 270.671 156.321 270.671 155.71V119.818C270.671 119.196 270.179 118.703 269.581 118.703H264.215C263.617 118.703 263.125 118.198 263.125 117.587V109.462C263.125 108.84 263.617 108.347 264.215 108.347H281.405C282.002 108.347 282.494 108.852 282.494 109.462V109.451Z" fill="#333399"/>
<path d="M308.602 96.2537V106.68C308.602 107.584 309.34 108.323 310.242 108.323H320.003C320.905 108.323 321.643 109.063 321.643 109.967V116.577C321.643 117.482 320.905 118.221 320.003 118.221H310.242C309.34 118.221 308.602 118.961 308.602 119.865V138.557C308.602 140.67 309.082 142.337 310.043 143.547C311.004 144.756 312.445 145.367 314.367 145.367C316.042 145.367 317.484 145.179 318.69 144.803C319.077 144.686 319.452 144.556 319.815 144.404C320.905 143.958 322.089 144.733 322.089 145.907V151.918C322.089 152.376 321.913 152.822 321.573 153.127C320.495 154.102 319.194 154.924 317.671 155.617C315.902 156.427 313.687 156.826 311.015 156.826C306.797 156.826 303.364 155.476 300.727 152.763C298.091 150.063 296.767 146.341 296.767 141.621V119.853C296.767 118.949 296.029 118.209 295.126 118.209H289.924C289.021 118.209 288.283 117.47 288.283 116.566V113.255C288.283 112.586 288.705 111.998 289.314 111.728C291.892 110.601 294.294 108.746 296.521 106.163C298.829 103.474 300.716 99.9991 302.157 95.7253C302.38 95.0561 303.001 94.5982 303.704 94.5982H306.938C307.84 94.5982 308.578 95.3379 308.578 96.2419H308.602V96.2537Z" fill="#333399"/>
<path d="M340.204 92.0386V154.478C340.204 155.781 339.102 156.838 337.743 156.838H330.314C328.955 156.838 327.854 155.781 327.854 154.478V92.0386C327.854 90.7354 328.955 89.6787 330.314 89.6787H337.743C339.102 89.6787 340.204 90.7354 340.204 92.0386Z" fill="#333399"/>
<path d="M369.392 107.114C373.986 107.114 377.946 108.112 381.262 110.096C384.578 112.092 387.121 114.84 388.89 118.35C390.66 121.861 391.539 125.923 391.539 130.526V131.853C391.539 133.907 389.875 135.563 387.836 135.563H357.475C358.096 138.733 359.643 141.281 362.127 143.206C364.611 145.132 367.646 146.095 371.255 146.095C374.665 146.095 377.77 145.414 380.559 144.04C382.516 143.077 384.203 142.103 385.609 141.116C386.301 140.623 387.25 141.116 387.25 141.962L387.18 150.357C387.18 150.662 387.051 150.955 386.816 151.155C385.34 152.364 383.242 153.585 380.524 154.806C377.571 156.145 374.337 156.814 370.798 156.814C366.146 156.814 361.905 155.757 358.096 153.644C354.277 151.531 351.242 148.642 348.968 144.967C346.707 141.304 345.57 137.101 345.57 132.381C345.57 127.661 346.59 123.587 348.64 119.795C350.691 116.002 353.515 112.938 357.112 110.601C360.709 108.265 364.811 107.102 369.404 107.102H369.392V107.114ZM369.111 117.493C366.193 117.493 363.744 118.397 361.752 120.194C359.76 122.002 358.401 124.421 357.651 127.473H380.172C379.926 124.115 378.684 121.614 376.446 119.959C374.208 118.315 371.759 117.482 369.088 117.482H369.111V117.493Z" fill="#333399"/>
<path d="M340.203 32.981V79.4874C340.203 80.2271 339.606 80.8259 338.867 80.8259H329.2C328.462 80.8259 327.864 80.2271 327.864 79.4874V43.501C327.864 42.7613 327.267 42.1625 326.529 42.1625H321.338C320.6 42.1625 320.002 41.5637 320.002 40.824V32.9927C320.002 32.2531 320.6 31.6543 321.338 31.6543H338.879C339.617 31.6543 340.215 32.2531 340.215 32.9927L340.203 32.981ZM333.009 5.98827C335.34 5.98827 337.356 6.82188 339.043 8.47737C340.73 10.1329 341.574 12.0936 341.574 14.3714C341.574 16.6492 340.73 18.5277 339.043 20.2185C337.356 21.9092 335.352 22.7545 333.009 22.7545C330.665 22.7545 328.685 21.9092 327.033 20.2185C325.38 18.5277 324.548 16.5787 324.548 14.3714C324.548 12.1641 325.38 10.1329 327.033 8.47737C328.685 6.82188 330.677 5.98827 333.009 5.98827Z" fill="#333399"/>
<path d="M211.906 55.6882C211.906 53.4105 212.199 51.2149 212.785 49.1015C213.371 46.9881 214.203 45.0156 215.281 43.184C216.359 41.3524 217.636 39.6969 219.136 38.2058C220.636 36.7147 222.3 35.4349 224.116 34.3782C225.944 33.3097 227.889 32.4879 229.975 31.9008C232.061 31.3138 234.24 31.0202 236.513 31.0202C238.786 31.0202 240.931 31.3138 243.028 31.9008C245.126 32.4879 247.083 33.3215 248.887 34.3782C250.703 35.4466 252.356 36.7147 253.855 38.2058C255.355 39.6969 256.644 41.3524 257.71 43.184C258.788 45.0156 259.62 46.9881 260.206 49.1015C260.792 51.2149 261.085 53.4105 261.085 55.6882C261.085 57.966 260.792 60.1616 260.206 62.2632C259.62 64.3649 258.788 66.3257 257.71 68.1455C256.632 69.9654 255.355 71.6209 253.855 73.1237C252.356 74.6266 250.703 75.9064 248.887 76.9748C247.083 78.0433 245.126 78.8651 243.028 79.4522C240.931 80.0392 238.763 80.3328 236.513 80.3328C234.263 80.3328 232.061 80.0392 229.975 79.4522C227.889 78.8651 225.932 78.0315 224.116 76.9748C222.288 75.9064 220.636 74.6266 219.136 73.1237C217.636 71.6209 216.347 69.9654 215.281 68.1455C214.203 66.3257 213.371 64.3649 212.785 62.2632C212.199 60.1616 211.906 57.966 211.906 55.6882ZM222.476 55.6882C222.476 57.696 222.827 59.5863 223.53 61.3827C224.233 63.1673 225.206 64.7289 226.46 66.0556C227.713 67.3824 229.19 68.4391 230.901 69.214C232.611 69.9889 234.486 70.3763 236.502 70.3763C238.517 70.3763 240.31 69.9889 241.997 69.214C243.684 68.4391 245.137 67.3824 246.368 66.0556C247.586 64.7289 248.547 63.1673 249.239 61.3827C249.93 59.5863 250.27 57.696 250.27 55.6882C250.27 53.6805 249.93 51.8137 249.239 50.0173C248.547 48.2092 247.598 46.6359 246.368 45.2622C245.149 43.9002 243.684 42.8083 241.997 41.9981C240.31 41.188 238.482 40.7771 236.502 40.7771C234.521 40.7771 232.611 41.188 230.901 41.9981C229.19 42.8083 227.713 43.9002 226.46 45.2622C225.206 46.6241 224.233 48.2092 223.53 50.0173C222.827 51.8254 222.476 53.7157 222.476 55.6882Z" fill="#333399"/>
<path d="M269.207 55.6882C269.207 53.4105 269.5 51.2149 270.086 49.1015C270.672 46.9881 271.504 45.0156 272.582 43.184C273.66 41.3524 274.937 39.6969 276.437 38.2058C277.937 36.7147 279.601 35.4349 281.417 34.3782C283.245 33.3097 285.19 32.4879 287.276 31.9008C289.361 31.3138 291.541 31.0202 293.814 31.0202C296.087 31.0202 298.232 31.3138 300.329 31.9008C302.427 32.4879 304.383 33.3215 306.188 34.3782C308.004 35.4466 309.656 36.7147 311.156 38.2058C312.656 39.6969 313.945 41.3524 315.011 43.184C316.089 45.0156 316.921 46.9881 317.507 49.1015C318.093 51.2149 318.386 53.4105 318.386 55.6882C318.386 57.966 318.093 60.1616 317.507 62.2632C316.921 64.3649 316.089 66.3257 315.011 68.1455C313.933 69.9654 312.656 71.6209 311.156 73.1237C309.656 74.6266 308.004 75.9064 306.188 76.9748C304.383 78.0433 302.427 78.8651 300.329 79.4522C298.232 80.0392 296.064 80.3328 293.814 80.3328C291.564 80.3328 289.361 80.0392 287.276 79.4522C285.19 78.8651 283.233 78.0315 281.417 76.9748C279.589 75.9064 277.937 74.6266 276.437 73.1237C274.937 71.6209 273.648 69.9654 272.582 68.1455C271.504 66.3257 270.672 64.3649 270.086 62.2632C269.5 60.1616 269.207 57.966 269.207 55.6882ZM279.776 55.6882C279.776 57.696 280.128 59.5863 280.831 61.3827C281.534 63.1673 282.507 64.7289 283.76 66.0556C285.014 67.3824 286.491 68.4391 288.201 69.214C289.912 69.9889 291.787 70.3763 293.802 70.3763C295.818 70.3763 297.611 69.9889 299.298 69.214C300.985 68.4391 302.438 67.3824 303.669 66.0556C304.887 64.7289 305.848 63.1673 306.539 61.3827C307.231 59.5863 307.571 57.696 307.571 55.6882C307.571 53.6805 307.231 51.8137 306.539 50.0173C305.848 48.2092 304.899 46.6359 303.669 45.2622C302.45 43.9002 300.985 42.8083 299.298 41.9981C297.611 41.188 295.783 40.7771 293.802 40.7771C291.822 40.7771 289.912 41.188 288.201 41.9981C286.491 42.8083 285.014 43.9002 283.76 45.2622C282.507 46.6241 281.534 48.2092 280.831 50.0173C280.128 51.8254 279.776 53.7157 279.776 55.6882Z" fill="#333399"/>
<path d="M259.118 30.4801H253.658C252.053 30.4801 250.752 31.7838 250.752 33.3919V77.4562C250.752 79.0643 252.053 80.368 253.658 80.368H259.118C260.723 80.368 262.024 79.0643 262.024 77.4562V33.3919C262.024 31.7838 260.723 30.4801 259.118 30.4801Z" fill="#333399"/>
<path d="M275.745 30.4801H268.972C267.73 30.4801 266.723 31.4894 266.723 32.7344V98.8132C266.723 100.058 267.73 101.068 268.972 101.068H275.745C276.988 101.068 277.995 100.058 277.995 98.8132V32.7344C277.995 31.4894 276.988 30.4801 275.745 30.4801Z" fill="#333399"/>
<path d="M396.695 57.0385C396.695 59.3162 396.402 61.5118 395.816 63.6252C395.23 65.7386 394.398 67.7111 393.32 69.5427C392.242 71.3743 390.965 73.0298 389.465 74.5209C387.965 76.012 386.301 77.2918 384.485 78.3485C382.657 79.4169 380.712 80.2388 378.626 80.8259C376.54 81.4129 374.361 81.7065 372.087 81.7065C369.814 81.7065 367.67 81.4129 365.572 80.8259C363.475 80.2388 361.518 79.4052 359.714 78.3485C357.897 77.2801 356.245 76.012 354.745 74.5209C353.246 73.0298 351.957 71.3743 350.89 69.5427C349.812 67.7111 348.98 65.7386 348.394 63.6252C347.809 61.5118 347.516 59.3162 347.516 57.0385C347.516 54.7607 347.809 52.5651 348.394 50.4635C348.98 48.3618 349.812 46.401 350.89 44.5812C351.968 42.7613 353.246 41.1058 354.745 39.603C356.245 38.1001 357.897 36.8203 359.714 35.7519C361.518 34.6834 363.475 33.8616 365.572 33.2745C367.67 32.6875 369.838 32.3939 372.087 32.3939C374.337 32.3939 376.54 32.6875 378.626 33.2745C380.712 33.8616 382.668 34.6952 384.485 35.7519C386.313 36.8203 387.965 38.1001 389.465 39.603C390.965 41.1058 392.254 42.7613 393.32 44.5812C394.398 46.401 395.23 48.3618 395.816 50.4635C396.402 52.5651 396.695 54.7607 396.695 57.0385ZM386.125 57.0385C386.125 55.0307 385.774 53.1404 385.071 51.344C384.368 49.5594 383.395 47.9978 382.141 46.6711C380.887 45.3443 379.411 44.2876 377.7 43.5127C375.989 42.7378 374.115 42.3504 372.099 42.3504C370.084 42.3504 368.291 42.7378 366.604 43.5127C364.916 44.2876 363.463 45.3443 362.233 46.6711C361.014 47.9978 360.053 49.5594 359.362 51.344C358.671 53.1404 358.331 55.0307 358.331 57.0385C358.331 59.0462 358.671 60.913 359.362 62.7094C360.053 64.5175 361.003 66.0908 362.233 67.4645C363.452 68.8265 364.916 69.9184 366.604 70.7286C368.291 71.5387 370.119 71.9496 372.099 71.9496C374.079 71.9496 375.989 71.5387 377.7 70.7286C379.411 69.9184 380.887 68.8265 382.141 67.4645C383.395 66.1026 384.368 64.5175 385.071 62.7094C385.774 60.9013 386.125 59.011 386.125 57.0385Z" fill="#333399"/>
<path d="M397.819 11.6592H389.242C388.498 11.6592 387.895 12.2637 387.895 13.0094V80.8963C387.895 81.642 388.498 82.2466 389.242 82.2466H397.819C398.564 82.2466 399.167 81.642 399.167 80.8963V13.0094C399.167 12.2637 398.564 11.6592 397.819 11.6592Z" fill="#333399"/>
<path d="M207.549 82.2466H195.339L167.158 43.9119H179.368L207.549 82.2466Z" fill="#333399"/>
<path d="M179.368 15.4281H167.158V158H179.368V15.4281Z" fill="#333399"/>
<path d="M35.5919 15.9212H157.783V157.988H35.5919C24.7765 157.988 16 149.194 16 138.357V35.5523C16 24.7153 24.7765 15.9212 35.5919 15.9212Z" fill="#333399"/>
<path d="M85.5449 59.8681H85.5097C82.7444 59.8915 79.8618 59.8915 76.9324 59.8681H76.909C75.5966 59.8681 74.9287 60.5373 74.8936 61.864C74.835 64.6467 74.835 67.5819 74.8936 70.6111C74.917 71.9261 75.5966 72.5836 76.909 72.5836H85.5683C86.9627 72.5836 87.6423 71.9027 87.6658 70.5172C87.7009 67.218 87.7009 64.494 87.6658 61.9345C87.6423 60.549 86.951 59.8681 85.5566 59.8681C85.5566 59.8681 85.5566 59.8681 85.5449 59.8681ZM83.7404 68.6504H78.901V63.7896H83.7404V68.6504Z" fill="white"/>
<path d="M103.589 64.3297C100.554 64.271 97.4958 64.2827 94.5195 64.3297C93.3829 64.3531 92.715 65.0576 92.7267 66.2082C92.7267 67.4293 93.418 68.1103 94.6601 68.122H103.401C104.69 68.122 105.37 67.4998 105.429 66.3022C105.452 65.6916 105.3 65.1868 104.983 64.8463C104.667 64.5058 104.187 64.3297 103.589 64.3179V64.3297Z" fill="white"/>
<path d="M59.4724 81.6712H103.882C105.171 81.6712 106.226 82.7279 106.226 84.0195C106.226 85.311 105.171 86.3677 103.882 86.3677H59.4724C58.1835 86.3677 57.1289 85.311 57.1289 84.0195C57.1289 82.7279 58.1835 81.6712 59.4724 81.6712Z" fill="white"/>
<path d="M49.4549 94.5864H103.883C105.172 94.5864 106.227 95.6431 106.227 96.9346C106.227 98.2262 105.172 99.2829 103.883 99.2829H49.4549C48.1659 99.2829 47.1113 98.2262 47.1113 96.9346C47.1113 95.6431 48.1659 94.5864 49.4549 94.5864Z" fill="white"/>
<path d="M39.4353 107.502H103.882C105.171 107.502 106.226 108.558 106.226 109.85C106.226 111.141 105.171 112.198 103.882 112.198H39.4353C38.1464 112.198 37.0918 111.141 37.0918 109.85C37.0918 108.558 38.1464 107.502 39.4353 107.502Z" fill="white"/>
<path d="M122.631 59.6685C122.631 51.5906 116.069 45.0156 108.007 45.0156H72.8072C64.7455 45.0156 58.1836 51.5906 58.1836 59.6685V71.4095C58.1836 72.8889 59.3788 74.0865 60.8552 74.0865C62.3316 74.0865 63.5268 72.8889 63.5268 71.4095V59.6685C63.5268 54.5493 67.6866 50.3813 72.7955 50.3813H107.995C113.104 50.3813 117.264 54.5493 117.264 59.6685V113.067C117.264 118.186 113.104 122.354 107.995 122.354H72.7955C69.4911 122.354 66.4094 120.558 64.7572 117.669C64.265 116.812 63.3745 116.284 62.4254 116.284C61.4762 116.284 60.6091 116.777 60.1287 117.611C59.6366 118.468 59.6366 119.489 60.1287 120.358C62.73 124.902 67.5811 127.72 72.7838 127.72H107.984C116.045 127.72 122.607 121.145 122.607 113.067V59.6685H122.631Z" fill="white"/>
<path d="M245.114 92.0386V154.478C245.114 155.781 244.013 156.838 242.653 156.838H235.224C233.865 156.838 232.764 155.781 232.764 154.478V92.0386C232.764 90.7354 233.865 89.6787 235.224 89.6787H242.653C244.013 89.6787 245.114 90.7354 245.114 92.0386Z" fill="#333399"/>
<path d="M213.804 89.6787H264.061C265.116 89.6787 265.96 90.7823 265.96 92.1443V99.5881C265.96 100.95 265.104 102.054 264.061 102.054H213.804C212.75 102.054 211.906 100.95 211.906 99.5881V92.1443C211.906 90.7823 212.762 89.6787 213.804 89.6787Z" fill="#333399"/>
<path d="M176.603 24.0811V15.1344H167.135V55.2419H176.603V46.4126V24.0811Z" fill="#333399"/>
<path d="M180.002 15.1346H176.604V24.0226H191.813V16.8488C191.813 15.8977 191.087 15.1346 190.184 15.1346H188.462H180.002Z" fill="#333399"/>
<path d="M180.002 46.3541H176.604V55.2421H190.208C191.098 55.2421 191.813 54.4789 191.813 53.5514V46.3541H188.462H180.002Z" fill="#333399"/>
<path d="M190.453 24.0226C190.453 24.0226 197.952 26.4882 198.878 34.3077C198.972 34.7422 199.722 42.7026 190.453 46.3541V55.2421C190.453 55.2421 203.788 54.2441 208.194 40.5657C208.194 39.8965 211.182 33.5093 205.838 24.5509C205.745 24.3161 200.507 15.8038 190.441 15.1228" fill="#333399"/>
<path d="M180.002 16.5787H176.604V25.3375H191.813V18.2694C191.813 17.3419 191.087 16.5787 190.184 16.5787H188.462H180.002Z" fill="#333399"/>
<path d="M187.056 52.7999H190.454V43.9119H175.244V51.0857C175.244 52.0368 175.971 52.7999 176.873 52.7999H178.595H187.056Z" fill="#333399"/>
<path d="M178.982 24.0813V15.1346H169.514V55.2421H178.982V46.4128V24.0813Z" fill="#333399"/>
<path d="M189.973 24.6566C189.973 24.6566 197.472 26.7935 198.398 33.5915C198.491 33.9672 199.241 40.8945 189.973 44.0646V51.7902C189.973 51.7902 203.307 50.9214 207.713 39.0394C207.713 38.4641 210.701 32.9106 205.358 25.1145C205.264 24.9031 200.026 17.518 189.961 16.9192" fill="#333399"/>
<path d="M209.295 82.2466H197.085L168.904 43.9119H181.114L209.295 82.2466Z" fill="#333399"/>
</g>
<defs>
<filter id="filter0_d_204_17379" x="0" y="0" width="415.166" height="184" filterUnits="userSpaceOnUse" color-interpolation-filters="sRGB">
<feFlood flood-opacity="0" result="BackgroundImageFix"/>
<feColorMatrix in="SourceAlpha" type="matrix" values="0 0 0 0 0 0 0 0 0 0 0 0 0 0 0 0 0 0 127 0" result="hardAlpha"/>
<feOffset dy="10"/>
<feGaussianBlur stdDeviation="8"/>
<feComposite in2="hardAlpha" operator="out"/>
<feColorMatrix type="matrix" values="0 0 0 0 0 0 0 0 0 0 0 0 0 0 0 0 0 0 0.25 0"/>
<feBlend mode="normal" in2="BackgroundImageFix" result="effect1_dropShadow_204_17379"/>
<feBlend mode="normal" in="SourceGraphic" in2="effect1_dropShadow_204_17379" result="shape"/>
</filter>
<clipPath id="clip0_204_17379">
<rect width="383.166" height="152" fill="white" transform="translate(16 6)"/>
</clipPath>
</defs>
</svg>
