<svg width="21" height="21" viewBox="0 0 21 21" fill="none" xmlns="http://www.w3.org/2000/svg">
<path d="M2.59961 7.8017V16.817C2.59961 17.3025 2.59961 17.545 2.69409 17.7305C2.7772 17.8936 2.90971 18.0264 3.07282 18.1095C3.25807 18.2039 3.5007 18.2039 3.98523 18.2039H13.0019M6.06702 11.9628V5.37468C6.06702 4.40372 6.06702 3.91787 6.25598 3.54701C6.4222 3.2208 6.68723 2.95576 7.01345 2.78955C7.38431 2.60059 7.87015 2.60059 8.84112 2.60059H15.4292C16.4002 2.60059 16.8854 2.60059 17.2563 2.78955C17.5825 2.95576 17.848 3.2208 18.0142 3.54701C18.2031 3.91787 18.2031 4.40337 18.2031 5.37432L18.2031 11.9624C18.2031 12.9334 18.2031 13.4189 18.0142 13.7897C17.848 14.116 17.5825 14.3815 17.2563 14.5477C16.8858 14.7365 16.4012 14.7365 15.4321 14.7365H8.83827C7.8692 14.7365 7.38395 14.7365 7.01345 14.5477C6.68723 14.3815 6.4222 14.116 6.25598 13.7898C6.06702 13.419 6.06702 12.9337 6.06702 11.9628Z" stroke="white" stroke-width="2" stroke-linecap="round" stroke-linejoin="round"/>
</svg>
