<svg width="22" height="22" viewBox="0 0 22 22" fill="none" xmlns="http://www.w3.org/2000/svg">
<g clip-path="url(#clip0_958_180727)">
<path d="M5.0084 4.06363C6.67175 2.62232 8.79972 1.83031 11.0007 1.83338C16.0634 1.83338 20.1673 5.9373 20.1673 11C20.1673 12.958 19.5532 14.773 18.5082 16.2617L15.584 11H18.334C18.3341 9.56237 17.9116 8.15637 17.1191 6.95687C16.3266 5.75737 15.1989 4.81728 13.8764 4.2535C12.5539 3.68971 11.0948 3.52711 9.68061 3.7859C8.26642 4.04469 6.95948 4.71346 5.92232 5.70905L5.0084 4.06363ZM16.9929 17.9365C15.3296 19.3778 13.2016 20.1698 11.0007 20.1667C5.9379 20.1667 1.83398 16.0628 1.83398 11C1.83398 9.04205 2.44815 7.22705 3.49315 5.73838L6.41732 11H3.66732C3.6672 12.4377 4.08967 13.8437 4.88221 15.0432C5.67474 16.2427 6.80238 17.1828 8.1249 17.7466C9.44743 18.3104 10.9065 18.473 12.3207 18.2142C13.7349 17.9554 15.0418 17.2866 16.079 16.291L16.9929 17.9365Z" fill="#A6A9B3"/>
</g>
<defs>
<clipPath id="clip0_958_180727">
<rect width="22" height="22" fill="white"/>
</clipPath>
</defs>
</svg>
