<svg width="44" height="43" viewBox="0 0 44 43" fill="none" xmlns="http://www.w3.org/2000/svg">
<path d="M22.0955 16.1251V23.2917M8.30131 27.233C6.65523 30.0553 5.83243 31.4669 5.95538 32.6248C6.06262 33.6348 6.59812 34.5523 7.42812 35.1493C8.37937 35.8334 10.0244 35.8334 13.3143 35.8334H30.8766C34.1665 35.8334 35.8113 35.8334 36.7626 35.1493C37.5926 34.5523 38.1283 33.6348 38.2356 32.6248C38.3585 31.4669 37.536 30.0553 35.8899 27.233L27.1119 12.183C25.4658 9.36084 24.6424 7.94998 23.5679 7.47642C22.6306 7.06336 21.5597 7.06336 20.6225 7.47642C19.5484 7.94979 18.7255 9.36066 17.0808 12.1805L8.30131 27.233ZM22.1874 28.6667V28.8459L22.0053 28.8462V28.6667H22.1874Z" stroke="#FF0000" stroke-width="2" stroke-linecap="round" stroke-linejoin="round"/>
</svg>
