<svg width="36" height="31" viewBox="0 0 36 31" fill="none" xmlns="http://www.w3.org/2000/svg">
<path d="M18.0955 10.1254V17.2921M4.30131 21.2334C2.65523 24.0556 1.83243 25.4672 1.95538 26.6252C2.06262 27.6351 2.59812 28.5527 3.42812 29.1496C4.37937 29.8338 6.02442 29.8338 9.31433 29.8338H26.8766C30.1665 29.8338 31.8113 29.8338 32.7626 29.1496C33.5926 28.5527 34.1283 27.6351 34.2356 26.6252C34.3585 25.4672 33.536 24.0556 31.8899 21.2334L23.1119 6.18341C21.4658 3.36121 20.6424 1.95035 19.5679 1.47679C18.6306 1.06373 17.5597 1.06373 16.6225 1.47679C15.5484 1.95015 14.7255 3.36102 13.0808 6.18088L4.30131 21.2334ZM18.1874 22.6671V22.8463L18.0053 22.8466V22.6671H18.1874Z" stroke="#FF0000" stroke-width="2" stroke-linecap="round" stroke-linejoin="round"/>
</svg>
